<svg width="17" height="17" viewBox="0 0 17 17" fill="none" xmlns="http://www.w3.org/2000/svg">
<path d="M14.875 1.99219H2.125C1.17194 1.99325 0.3995 2.76569 0.398438 3.71875V13.2812C0.3995 14.2343 1.17194 15.0067 2.125 15.0078H14.875C15.8281 15.0073 16.601 14.2343 16.6016 13.2812V3.71875C16.6005 2.76569 15.8281 1.99325 14.875 1.99219ZM2.125 3.32031H14.875C14.9913 3.32084 15.0955 3.37184 15.1667 3.45206L15.1672 3.45259L8.5 8.21472L1.83281 3.45259C1.90453 3.37184 2.00919 3.32084 2.125 3.32031ZM14.875 13.6797H2.125C1.90506 13.6797 1.72656 13.5012 1.72656 13.2812V5.00916L8.11378 9.57153C8.13025 9.58109 8.15044 9.59119 8.17116 9.60022L8.17541 9.60181C8.19187 9.61137 8.21153 9.62147 8.23225 9.6305L8.2365 9.63209C8.31353 9.66928 8.40384 9.69213 8.49894 9.69478H8.5H8.50106C8.59722 9.69213 8.68753 9.66928 8.76828 9.6305L8.76403 9.63209C8.78847 9.62147 8.80866 9.61137 8.82778 9.60022L8.82459 9.60181C8.84956 9.59119 8.86975 9.58056 8.88888 9.56941L8.88569 9.571L15.2729 5.00863V13.2807C15.2729 13.5007 15.0944 13.6792 14.8745 13.6792L14.875 13.6797Z" fill="white"/>
</svg>
