<svg width="14" height="14" viewBox="0 0 14 14" fill="none" xmlns="http://www.w3.org/2000/svg">
<g clip-path="url(#clip0_15_15)">
<path d="M13.5607 7.03982C13.5603 3.41689 10.6233 0.47995 6.99996 0.47995C3.37658 0.47995 0.439209 3.41733 0.439209 7.0407C0.439209 10.3023 2.81921 13.0078 5.93683 13.5157L5.97446 13.521V8.93682H4.30846V7.03982H5.97446V5.5952C5.96615 5.52214 5.96177 5.43726 5.96177 5.35151C5.96177 4.0727 6.99865 3.03582 8.27746 3.03582C8.33915 3.03582 8.4004 3.03845 8.46121 3.04282L8.45333 3.04239C8.9779 3.04982 9.4854 3.0962 9.98065 3.17889L9.92202 3.17057V4.78495H9.09427C9.05665 4.7797 9.01333 4.77664 8.96958 4.77664C8.4459 4.77664 8.02108 5.20101 8.02108 5.72514C8.02108 5.75489 8.0224 5.7842 8.02502 5.81351L8.02458 5.80958V7.03982H9.84415L9.55321 8.93682H8.02458V13.521C11.1803 13.0073 13.5603 10.3014 13.5607 7.03982Z" fill="white"/>
</g>
<defs>
<clipPath id="clip0_15_15">
<rect width="14" height="14" fill="white"/>
</clipPath>
</defs>
</svg>
