<svg width="14" height="14" viewBox="0 0 14 14" fill="none" xmlns="http://www.w3.org/2000/svg">
<g clip-path="url(#clip0_15_27)">
<path fill-rule="evenodd" clip-rule="evenodd" d="M4.10876 0.0859104C2.96924 0.137325 1.98157 0.415923 1.18405 1.21008C0.383736 2.00841 0.108599 2.99999 0.0570559 4.12766C0.0250155 4.83149 -0.16234 10.1488 0.380951 11.5433C0.747324 12.484 1.46891 13.2074 2.41827 13.5749C2.86126 13.7472 3.36696 13.8639 4.10876 13.8979C10.3113 14.1786 12.6106 14.0258 13.5801 11.5433C13.7522 11.1014 13.8706 10.5961 13.9033 9.85617C14.1868 3.6377 13.8574 2.2898 12.7763 1.21008C11.9189 0.354778 10.9103 -0.227445 4.10876 0.0859104ZM4.16586 12.6473C3.48675 12.6167 3.11829 12.5036 2.87242 12.4084C2.2539 12.168 1.78932 11.7053 1.55041 11.0904C1.13667 10.0308 1.27389 4.99837 1.31081 4.18406C1.34703 3.38642 1.50862 2.65744 2.07141 2.09465C2.76794 1.39984 3.66784 1.05933 9.79519 1.33586C10.5948 1.37199 11.3255 1.53325 11.8897 2.09465C12.5862 2.78945 12.9317 3.69628 12.6503 9.80012C12.6196 10.4776 12.5061 10.8451 12.4107 11.0904C11.7803 12.7058 10.3301 12.9301 4.16586 12.6473ZM9.86276 3.28274C9.86276 3.7427 10.2368 4.11672 10.6986 4.11672C11.1604 4.11672 11.5351 3.7427 11.5351 3.28274C11.5351 2.82278 11.1604 2.44909 10.6986 2.44909C10.2368 2.44909 9.86276 2.82278 9.86276 3.28274ZM3.40387 6.99158C3.40387 8.96203 5.00519 10.5596 6.98054 10.5596C8.95589 10.5596 10.5572 8.96203 10.5572 6.99158C10.5572 5.02112 8.95589 3.42458 6.98054 3.42458C5.00519 3.42458 3.40387 5.02112 3.40387 6.99158ZM4.65901 6.99158C4.65901 5.71314 5.69823 4.6759 6.98054 4.6759C8.26284 4.6759 9.30206 5.71314 9.30206 6.99158C9.30206 8.27071 8.26284 9.30827 6.98054 9.30827C5.69823 9.30827 4.65901 8.27071 4.65901 6.99158Z" fill="white"/>
</g>
<defs>
<clipPath id="clip0_15_27">
<rect width="14" height="14" fill="white"/>
</clipPath>
</defs>
</svg>
