<svg width="17" height="14" viewBox="0 0 17 14" fill="none" xmlns="http://www.w3.org/2000/svg">
<g clip-path="url(#clip0_15_7)">
<path d="M11.2358 0.871324C11.3556 0.871439 11.4704 0.910677 11.5551 0.980426C11.6398 1.05017 11.6875 1.14474 11.6876 1.24338V12.7566C11.6875 12.8553 11.6398 12.9498 11.5551 13.0196C11.4704 13.0893 11.3556 13.1286 11.2358 13.1287H5.76312C5.64334 13.1286 5.52851 13.0893 5.44381 13.0196C5.35912 12.9498 5.31147 12.8553 5.31133 12.7566V1.24338C5.31147 1.14474 5.35912 1.05017 5.44381 0.980426C5.52851 0.910677 5.64334 0.871439 5.76312 0.871324H11.2358ZM11.2358 0H5.76312C5.56484 0 5.36852 0.0321639 5.18534 0.0946496C5.00216 0.157135 4.83572 0.248721 4.69552 0.36418C4.55532 0.479638 4.44412 0.616707 4.36824 0.76756C4.29237 0.918414 4.2533 1.0801 4.2533 1.24338V12.7566C4.2533 12.9199 4.29237 13.0816 4.36824 13.2324C4.44412 13.3833 4.55532 13.5204 4.69552 13.6358C4.83572 13.7513 5.00216 13.8429 5.18534 13.9054C5.36852 13.9678 5.56484 14 5.76312 14H11.2358C11.6363 14 12.0203 13.869 12.3034 13.6358C12.5866 13.4026 12.7456 13.0864 12.7456 12.7566V1.24338C12.7456 0.913616 12.5866 0.597358 12.3034 0.36418C12.0203 0.131001 11.6363 0 11.2358 0Z" fill="white"/>
<path d="M8.49973 12.3423C8.83397 12.3423 9.10492 12.1192 9.10492 11.8439C9.10492 11.5687 8.83397 11.3455 8.49973 11.3455C8.16549 11.3455 7.89453 11.5687 7.89453 11.8439C7.89453 12.1192 8.16549 12.3423 8.49973 12.3423Z" fill="white"/>
<path d="M8.49979 11.3455C8.38005 11.3454 8.26294 11.3746 8.16334 11.4293C8.06373 11.4841 7.98609 11.5619 7.94022 11.653C7.89435 11.7441 7.88231 11.8443 7.90564 11.941C7.92898 12.0378 7.98665 12.1266 8.07132 12.1963C8.15599 12.2661 8.26387 12.3135 8.38132 12.3328C8.49877 12.352 8.6205 12.3421 8.7311 12.3043C8.84171 12.2665 8.93622 12.2026 9.00268 12.1205C9.06914 12.0385 9.10456 11.9421 9.10446 11.8435C9.10432 11.7115 9.04056 11.5849 8.92719 11.4915C8.81383 11.3981 8.66011 11.3456 8.49979 11.3455Z" fill="white"/>
</g>
<defs>
<clipPath id="clip0_15_7">
<rect width="17" height="14" fill="white"/>
</clipPath>
</defs>
</svg>
